# xmcd
#
# Track frame offsets: 
#        150
#        15433
#        30488
#        53169
#        82424
#        104051
#        124673
#        144843
#        173822
#        194022
#        210000
#        256742
#
# Disc length: 3626 seconds
#
# Revision: 0
# Processed by: cddbd v1.5.2PL0 Copyright (c) Steve Scherf et al.
# Submitted via: ExactAudioCopy v0.99pb5
#
DISCID=9c0e280c
DTITLE=Crawler - Live-Agora Club 1978
DYEAR=2002
DGENRE=Blues Rock
TTITLE0=Without You Babe
TTITLE1=You Got Money
TTITLE2=Keep On Running
TTITLE3=You And Me
TTITLE4=You Are My Saviour
TTITLE5=Pastime Dreamer
TTITLE6=Never Loved A Woman
TTITLE7=Blues My Guitar
TTITLE8=Worn Out Dream
TTITLE9=Stone Cold Sober
TTITLE10=Blue Soul
TTITLE11=Selfish Lover
EXTD=
EXTT0=
EXTT1=
EXTT2=
EXTT3=
EXTT4=
EXTT5=
EXTT6=
EXTT7=
EXTT8=
EXTT9=
EXTT10=
EXTT11=
PLAYORDER=
